<svg xmlns="http://www.w3.org/2000/svg" viewBox="0 0 192 192">
  <defs>
    <radialGradient id="ocean" cx="40%" cy="35%" r="65%">
      <stop offset="0%" stop-color="#4DB6E8"/>
      <stop offset="55%" stop-color="#1A8BC4"/>
      <stop offset="100%" stop-color="#0D5E8A"/>
    </radialGradient>
    <radialGradient id="shine" cx="32%" cy="28%" r="45%">
      <stop offset="0%" stop-color="rgba(255,255,255,0.35)"/>
      <stop offset="100%" stop-color="rgba(255,255,255,0)"/>
    </radialGradient>
    <clipPath id="c"><circle cx="96" cy="96" r="88"/></clipPath>
  </defs>

  <!-- Ocean -->
  <circle cx="96" cy="96" r="88" fill="url(#ocean)"/>

  <!-- ── Landmasses (Asia-Pacific facing, like 🌏) ── -->
  <g clip-path="url(#c)">

    <!-- Russia / Northern Asia - large tan mass at top -->
    <path d="M 72 8 L 96 4 L 124 8 L 148 16 L 168 28 L 178 44 L 172 52 L 158 48 L 144 44 L 130 48 L 118 44 L 108 48 L 98 44 L 88 48 L 76 44 L 64 48 L 52 44 L 44 36 L 48 24 Z"
          fill="#6AAF3D"/>

    <!-- China / East Asia main body -->
    <path d="M 98 44 L 118 44 L 134 48 L 148 52 L 156 62 L 154 74 L 144 80 L 132 82 L 120 86 L 110 92 L 102 96 L 94 92 L 88 84 L 90 72 L 86 62 L 90 52 Z"
          fill="#72B83E"/>

    <!-- Mongolia bump -->
    <path d="M 108 44 L 130 44 L 138 50 L 128 54 L 114 52 L 106 48 Z"
          fill="#7DBF42"/>

    <!-- Korean peninsula -->
    <path d="M 144 74 L 150 72 L 154 78 L 150 86 L 144 84 L 142 78 Z"
          fill="#6AAF3D"/>

    <!-- Japan -->
    <path d="M 156 64 L 162 60 L 166 66 L 162 72 L 157 70 Z"
          fill="#72B83E"/>
    <path d="M 160 72 L 166 70 L 170 76 L 166 82 L 160 80 Z"
          fill="#72B83E"/>

    <!-- India -->
    <path d="M 86 82 L 96 80 L 104 84 L 106 96 L 102 110 L 96 118 L 90 112 L 86 98 L 84 88 Z"
          fill="#78BC40"/>

    <!-- Sri Lanka -->
    <path d="M 96 118 L 99 116 L 101 122 L 97 124 Z"
          fill="#72B83E"/>

    <!-- Southeast Asia mainland (Thailand, Vietnam, etc.) -->
    <path d="M 110 88 L 124 84 L 134 88 L 138 98 L 132 106 L 122 108 L 112 104 L 108 96 Z"
          fill="#6AAF3D"/>

    <!-- Thailand/Malay peninsula -->
    <path d="M 120 106 L 126 104 L 128 114 L 124 124 L 120 120 L 118 112 Z"
          fill="#6AAF3D"/>

    <!-- Indonesia / Sumatra -->
    <path d="M 112 122 L 128 118 L 140 120 L 146 126 L 138 130 L 124 130 L 112 128 Z"
          fill="#72B83E"/>

    <!-- Java -->
    <path d="M 130 132 L 148 130 L 156 132 L 154 136 L 138 136 L 128 136 Z"
          fill="#6AAF3D"/>

    <!-- Borneo -->
    <path d="M 144 112 L 158 110 L 166 116 L 164 128 L 154 132 L 144 128 L 140 120 Z"
          fill="#78BC40"/>

    <!-- Philippines -->
    <path d="M 154 92 L 158 88 L 162 92 L 160 100 L 156 100 Z"
          fill="#72B83E"/>
    <path d="M 160 98 L 164 96 L 166 102 L 162 104 L 158 102 Z"
          fill="#72B83E"/>

    <!-- Australia -->
    <path d="M 140 148 L 164 142 L 180 148 L 184 162 L 178 176 L 162 180 L 144 174 L 136 162 L 138 150 Z"
          fill="#C8A84B"/>

    <!-- New Zealand -->
    <path d="M 178 172 L 182 168 L 186 174 L 182 180 Z"
          fill="#72B83E"/>
    <path d="M 180 180 L 184 177 L 186 183 L 182 186 Z"
          fill="#72B83E"/>

    <!-- Middle East / Arabian Peninsula -->
    <path d="M 68 80 L 80 78 L 84 86 L 80 98 L 72 102 L 66 96 L 64 86 Z"
          fill="#C8A84B"/>

    <!-- Africa (eastern edge visible) -->
    <path d="M 36 72 L 52 68 L 62 72 L 66 84 L 64 100 L 58 114 L 50 124 L 40 122 L 32 110 L 28 94 L 30 80 Z"
          fill="#78BC40"/>

    <!-- Eastern Europe / western Russia -->
    <path d="M 36 28 L 56 24 L 68 28 L 72 40 L 64 48 L 52 48 L 40 44 L 32 36 Z"
          fill="#72B83E"/>

    <!-- Antarctica hint -->
    <path d="M 20 170 L 96 176 L 172 170 L 184 182 L 184 192 L 8 192 L 8 182 Z"
          fill="white" opacity="0.7"/>

    <!-- Arctic ice -->
    <path d="M 44 8 L 96 2 L 148 8 L 140 16 L 96 12 L 52 16 Z"
          fill="white" opacity="0.6"/>
  </g>

  <!-- Shine overlay -->
  <circle cx="96" cy="96" r="88" fill="url(#shine)"/>

  <!-- Outer rim -->
  <circle cx="96" cy="96" r="88" fill="none" stroke="rgba(255,255,255,0.25)" stroke-width="2"/>
  <circle cx="96" cy="96" r="90" fill="none" stroke="rgba(0,60,100,0.4)" stroke-width="3"/>
</svg>
