<svg xmlns="http://www.w3.org/2000/svg" viewBox="0 0 512 512">
  <defs>
    <radialGradient id="ocean" cx="40%" cy="35%" r="65%">
      <stop offset="0%" stop-color="#4DB6E8"/>
      <stop offset="55%" stop-color="#1A8BC4"/>
      <stop offset="100%" stop-color="#0D5E8A"/>
    </radialGradient>
    <radialGradient id="shine" cx="32%" cy="28%" r="45%">
      <stop offset="0%" stop-color="rgba(255,255,255,0.35)"/>
      <stop offset="100%" stop-color="rgba(255,255,255,0)"/>
    </radialGradient>
    <clipPath id="c"><circle cx="256" cy="256" r="235"/></clipPath>
  </defs>

  <!-- Ocean -->
  <circle cx="256" cy="256" r="235" fill="url(#ocean)"/>

  <g clip-path="url(#c)">

    <!-- Russia / Northern Asia -->
    <path d="M 192 21 L 256 11 L 331 21 L 395 43 L 448 75 L 475 117 L 459 139 L 421 128 L 384 117 L 347 128 L 315 117 L 288 128 L 261 117 L 235 128 L 203 117 L 171 117 L 139 96 L 128 64 L 149 32 Z"
          fill="#6AAF3D"/>

    <!-- China / East Asia -->
    <path d="M 261 117 L 315 117 L 357 128 L 395 139 L 416 165 L 411 197 L 384 213 L 352 219 L 320 229 L 293 245 L 272 256 L 251 245 L 235 224 L 240 192 L 229 165 L 240 139 Z"
          fill="#72B83E"/>

    <!-- Mongolia -->
    <path d="M 288 117 L 347 117 L 368 133 L 341 144 L 304 139 L 283 128 Z"
          fill="#7DBF42"/>

    <!-- Korean peninsula -->
    <path d="M 384 197 L 400 192 L 411 208 L 400 229 L 384 224 L 379 208 Z"
          fill="#6AAF3D"/>

    <!-- Japan main -->
    <path d="M 416 171 L 432 160 L 443 176 L 432 192 L 419 187 Z"
          fill="#72B83E"/>
    <path d="M 427 192 L 443 187 L 453 203 L 443 219 L 427 213 Z"
          fill="#72B83E"/>

    <!-- India -->
    <path d="M 229 219 L 256 213 L 277 224 L 283 256 L 272 293 L 256 315 L 240 299 L 229 261 L 224 235 Z"
          fill="#78BC40"/>

    <!-- Sri Lanka -->
    <path d="M 256 315 L 264 309 L 269 325 L 259 331 Z"
          fill="#72B83E"/>

    <!-- Southeast Asia mainland -->
    <path d="M 293 235 L 331 224 L 357 235 L 368 261 L 352 283 L 325 288 L 299 277 L 288 256 Z"
          fill="#6AAF3D"/>

    <!-- Malay peninsula -->
    <path d="M 320 283 L 336 277 L 341 304 L 331 331 L 320 320 L 315 299 Z"
          fill="#6AAF3D"/>

    <!-- Sumatra -->
    <path d="M 299 325 L 341 315 L 373 320 L 389 336 L 368 347 L 331 347 L 299 341 Z"
          fill="#72B83E"/>

    <!-- Java -->
    <path d="M 347 352 L 395 347 L 416 352 L 411 363 L 368 363 L 341 363 Z"
          fill="#6AAF3D"/>

    <!-- Borneo -->
    <path d="M 384 299 L 421 293 L 443 309 L 437 341 L 411 352 L 384 341 L 373 320 Z"
          fill="#78BC40"/>

    <!-- Philippines -->
    <path d="M 411 245 L 421 235 L 432 245 L 427 267 L 416 267 Z"
          fill="#72B83E"/>
    <path d="M 427 261 L 437 256 L 443 272 L 432 277 L 421 272 Z"
          fill="#72B83E"/>

    <!-- Australia -->
    <path d="M 373 395 L 437 379 L 480 395 L 491 432 L 475 469 L 432 480 L 384 464 L 363 432 L 368 400 Z"
          fill="#C8A84B"/>

    <!-- New Zealand -->
    <path d="M 475 459 L 485 448 L 496 464 L 485 480 Z"
          fill="#72B83E"/>
    <path d="M 480 480 L 491 472 L 496 488 L 485 496 Z"
          fill="#72B83E"/>

    <!-- Arabian Peninsula -->
    <path d="M 181 213 L 213 208 L 224 229 L 213 261 L 192 272 L 176 256 L 171 229 Z"
          fill="#C8A84B"/>

    <!-- Africa eastern -->
    <path d="M 96 192 L 139 181 L 165 192 L 176 224 L 171 267 L 155 304 L 133 331 L 107 325 L 85 293 L 75 251 L 80 213 Z"
          fill="#78BC40"/>

    <!-- Eastern Europe -->
    <path d="M 96 75 L 149 64 L 181 75 L 192 107 L 171 128 L 139 128 L 107 117 L 85 96 Z"
          fill="#72B83E"/>

    <!-- Antarctica -->
    <path d="M 53 453 L 256 469 L 459 453 L 491 485 L 491 512 L 21 512 L 21 485 Z"
          fill="white" opacity="0.7"/>

    <!-- Arctic ice -->
    <path d="M 117 21 L 256 5 L 395 21 L 373 43 L 256 32 L 139 43 Z"
          fill="white" opacity="0.6"/>
  </g>

  <!-- Shine -->
  <circle cx="256" cy="256" r="235" fill="url(#shine)"/>

  <!-- Rim -->
  <circle cx="256" cy="256" r="235" fill="none" stroke="rgba(255,255,255,0.25)" stroke-width="5"/>
  <circle cx="256" cy="256" r="240" fill="none" stroke="rgba(0,60,100,0.4)" stroke-width="8"/>
</svg>
